<svg width="1010" height="230" viewBox="0 0 1010 230" fill="none" xmlns="http://www.w3.org/2000/svg">
<g clip-path="url(#clip0)">
<path fill-rule="evenodd" clip-rule="evenodd" d="M117.379 31.9281L97.2152 49.1929C94.5965 43.2498 90.3457 38.1872 84.9651 34.6039C79.5846 31.0205 73.2993 29.0661 66.8525 28.9718C44.5788 28.9718 31.6835 37.4859 31.6835 62.6736V98.1492C31.6835 107.609 35.5521 132.561 60.7565 132.561C67.9776 132.537 75.0753 130.671 81.3886 127.135C87.7019 123.599 93.0254 118.509 96.8634 112.339L118.317 128.776C112.28 138.472 103.863 146.429 93.8808 151.878C83.8989 157.327 72.6907 160.082 61.3427 159.877C53.4645 160.366 45.5709 159.209 38.1566 156.478C30.7423 153.747 23.9671 149.501 18.2553 144.005C12.5435 138.51 8.0182 131.884 4.963 124.543C1.90779 117.202 0.388489 109.303 0.500255 101.342C0.500255 75.7996 1.32086 80.5297 1.32086 55.5785C1.85491 41.81 7.46167 28.7377 17.0446 18.9182C26.6274 9.09867 39.4971 3.23833 53.1366 2.48337C65.5327 0.405388 78.2614 2.09587 89.7019 7.3395C101.142 12.5831 110.777 21.1427 117.379 31.9281Z" fill="#5E2E27"/>
<path fill-rule="evenodd" clip-rule="evenodd" d="M280.563 5.20306H310.925C310.925 5.20306 310.925 74.7352 310.925 92C310.925 109.265 317.608 133.033 340.936 133.033C364.265 133.033 373.526 122.272 373.526 92.8277V6.14906H404.006V159.049H377.395V145.213C364.636 155.187 348.989 160.67 332.847 160.823C318.688 160.329 305.285 154.258 295.511 143.913C285.736 133.567 280.37 119.77 280.563 105.481C280.563 73.4344 280.211 5.20306 280.563 5.20306Z" fill="#5E2E27"/>
<path fill-rule="evenodd" clip-rule="evenodd" d="M849.481 160.823H818.884C818.884 160.823 818.884 91.2905 818.884 74.0257C818.884 56.7609 812.202 32.9923 788.873 32.9923C765.544 32.9923 756.283 49.1928 756.283 76.982V159.758H726.389V6.9769H752.532V20.8124C752.532 20.8124 760.855 4.13888 793.797 5.20315C801.122 4.89226 808.432 6.10464 815.273 8.76495C822.114 11.4253 828.339 15.4766 833.562 20.6671C838.784 25.8577 842.893 32.0763 845.631 38.9366C848.37 45.7969 849.68 53.1521 849.481 60.545C849.481 92.473 849.481 160.823 849.481 160.823Z" fill="#C7CD1D"/>
<path fill-rule="evenodd" clip-rule="evenodd" d="M185.02 2.2469H200.729C214.679 2.34068 228.025 8.00466 237.846 17.9995C247.666 27.9944 253.162 41.5062 253.131 55.5785V105.954C253.131 120.026 247.605 133.525 237.763 143.498C227.92 153.471 214.562 159.105 200.612 159.167H185.02C171.079 159.074 157.739 153.43 147.903 143.464C138.067 133.498 132.532 120.017 132.501 105.954V55.5785C132.532 41.5158 138.067 28.0345 147.903 18.0685C157.739 8.10257 171.079 2.45864 185.02 2.36513V2.2469ZM187.13 28.9718C179.351 29.8664 172.226 33.7924 167.276 39.9121C162.326 46.0318 159.944 53.8605 160.636 61.7276V99.5682C159.944 107.435 162.326 115.264 167.276 121.384C172.226 127.503 179.351 131.429 187.13 132.324H198.853C206.633 131.429 213.758 127.503 218.707 121.384C223.657 115.264 226.04 107.435 225.347 99.5682V61.7276C226.04 53.8605 223.657 46.0318 218.707 39.9121C213.758 33.7924 206.633 29.8664 198.853 28.9718H187.13Z" fill="#5E2E27"/>
<path fill-rule="evenodd" clip-rule="evenodd" d="M433.079 6.14909V220.422H466.021V149.47C466.021 149.47 472.82 160.231 502.831 160.231C516.912 160.132 530.426 154.622 540.62 144.823C550.813 135.024 556.92 121.673 557.695 107.491V55.5784C557.695 40.4421 544.917 5.43957 510.803 3.78404C476.689 2.12851 466.842 11.2339 462.621 20.1028V5.67607H433.431L433.079 6.14909ZM489.936 29.0899H504.941C512.721 29.9845 519.846 33.9106 524.796 40.0303C529.745 46.1499 532.128 53.9786 531.436 61.8457V99.6864C532.128 107.554 529.745 115.382 524.796 121.502C519.846 127.621 512.721 131.548 504.941 132.442H489.936C482.157 131.548 475.032 127.621 470.082 121.502C465.132 115.382 462.749 107.554 463.442 99.6864V61.8457C462.717 53.9593 465.085 46.1003 470.038 39.9546C474.991 33.8089 482.134 29.866 489.936 28.9717V29.0899Z" fill="#E52330"/>
<path fill-rule="evenodd" clip-rule="evenodd" d="M587.706 16.4369L600.132 37.131C611.219 30.0687 624.42 27.1793 637.411 28.9717C641.56 28.9046 645.674 29.7376 649.475 31.4141C653.276 33.0906 656.676 35.5715 659.444 38.6888C662.212 41.8061 664.284 45.4871 665.519 49.4823C666.753 53.4776 667.123 57.6939 666.602 61.8457C656.044 55.3719 643.758 52.3562 631.433 53.2133C620.423 52.8782 609.585 56.0277 600.44 62.2202C591.294 68.4127 584.3 77.3376 580.437 87.7429C575.748 106.781 576.1 151.244 613.848 158.694C651.596 166.144 669.063 145.332 669.063 145.332V159.64H694.737V50.6118C694.737 -3.78411 619.827 -13.0078 587.237 16.5552L587.706 16.4369ZM633.543 77.928H637.411C644.22 77.928 650.75 80.6564 655.565 85.513C660.38 90.3697 663.085 96.9568 663.085 103.825V109.028C663.085 115.897 660.38 122.484 655.565 127.34C650.75 132.197 644.22 134.925 637.411 134.925H633.543C626.743 134.894 620.231 132.156 615.423 127.306C610.615 122.456 607.9 115.887 607.869 109.028V103.825C607.869 96.9568 610.574 90.3697 615.389 85.513C620.203 80.6564 626.734 77.928 633.543 77.928Z" fill="#FBBC43"/>
<path fill-rule="evenodd" clip-rule="evenodd" d="M970.345 15.9641C974.957 10.4408 981.195 6.54517 988.152 4.84382C995.11 3.14247 1002.42 3.72402 1009.03 6.50394V29.4448C1004.81 28.0196 1000.29 27.717 995.916 28.5663C991.542 29.4156 987.459 31.388 984.061 34.2932C987.564 41.6797 989.405 49.7557 989.454 57.9436V57.9436C989.801 71.7472 984.719 85.1286 975.318 95.1654C965.917 105.202 952.961 111.079 939.279 111.512C921.695 111.512 915.833 112.694 900.124 135.162C897.662 139.892 902 138 902 138C922.093 131.434 943.505 130.091 964.249 134.098C975.435 136.143 985.616 141.916 993.162 150.492C1000.71 159.069 1005.18 169.952 1005.87 181.399C1006.57 206.586 968.352 229.645 968.352 229.645L955.222 207.532C967.766 194.761 984.53 186.247 968.587 168.627C952.643 151.008 913.371 160.586 894.966 164.725C876.561 168.864 872.458 148.643 874.099 133.388C875.604 127.06 878.35 121.1 882.175 115.86C886.001 110.62 890.828 106.206 896.373 102.879C889.103 97.8553 883.165 91.1108 879.078 83.2359C874.99 75.361 872.878 66.5958 872.927 57.7071C872.579 43.9034 877.661 30.522 887.062 20.4852C896.463 10.4484 909.419 4.57185 923.101 4.13894H939.396C950.577 4.19835 961.391 8.16871 969.993 15.3728L970.345 15.9641ZM929.432 29.2083C921.901 28.8535 914.537 31.5115 908.939 36.6046C903.341 41.6977 899.962 48.8141 899.538 56.4063V61.8459C899.962 69.4381 903.341 76.5544 908.939 81.6475C914.537 86.7406 921.901 89.3987 929.432 89.0438H934.004C941.534 89.3987 948.899 86.7406 954.497 81.6475C960.095 76.5544 963.473 69.4381 963.897 61.8459V56.4063C963.473 48.8141 960.095 41.6977 954.497 36.6046C948.899 31.5115 941.534 28.8535 934.004 29.2083H929.432Z" fill="#61BFE6"/>
</g>
<defs>
<clipPath id="clip0">
<rect width="1009" height="230" fill="white" transform="translate(0.5)"/>
</clipPath>
</defs>
</svg>
